<svg xmlns="http://www.w3.org/2000/svg" xmlns:xlink="http://www.w3.org/1999/xlink" width="500" zoomAndPan="magnify" viewBox="0 0 375 374.999991" height="500" preserveAspectRatio="xMidYMid meet" version="1.0"><defs><g/></defs><g fill="#000080" fill-opacity="1"><g transform="translate(90.226631, 206.249986)"><g><path d="M 1.328125 0 L 1.328125 -7.5 L 18 -28.859375 L 18 -28.96875 L 2.34375 -28.96875 L 2.34375 -36.46875 L 29.21875 -36.46875 L 29.21875 -28.96875 L 12.546875 -7.59375 L 12.546875 -7.5 L 29.734375 -7.5 L 29.734375 0 Z M 1.328125 0 "/></g></g></g><g fill="#000080" fill-opacity="1"><g transform="translate(119.901468, 206.249986)"><g><path d="M 2.5 0 L 2.5 -36.46875 L 30.140625 -36.46875 L 30.140625 -28.96875 L 11.671875 -28.96875 L 11.671875 -22.484375 L 27.59375 -22.484375 L 27.59375 -15 L 11.671875 -15 L 11.671875 -7.5 L 30.453125 -7.5 L 30.453125 0 Z M 2.5 0 "/></g></g></g><g fill="#000080" fill-opacity="1"><g transform="translate(150.494098, 206.249986)"><g><path d="M 2.5 0 L 2.5 -36.46875 L 11.671875 -36.46875 L 24.421875 -14.796875 L 24.53125 -14.796875 L 24.53125 -36.46875 L 33.71875 -36.46875 L 33.71875 0 L 24.53125 0 L 11.78125 -21.671875 L 11.671875 -21.671875 L 11.671875 0 Z M 2.5 0 "/></g></g></g><g fill="#000080" fill-opacity="1"><g transform="translate(185.26777, 206.249986)"><g><path d="M 11.46875 0 L 11.46875 -28.96875 L 0.859375 -28.96875 L 0.859375 -36.46875 L 31.21875 -36.46875 L 31.21875 -28.96875 L 20.65625 -28.96875 L 20.65625 0 Z M 11.46875 0 "/></g></g></g><g fill="#000080" fill-opacity="1"><g transform="translate(215.911384, 206.249986)"><g><path d="M 2.5 0 L 2.5 -36.46875 L 19.6875 -36.46875 C 23.726562 -36.46875 26.90625 -35.554688 29.21875 -33.734375 C 31.53125 -31.921875 32.6875 -29.296875 32.6875 -25.859375 C 32.6875 -23.441406 32.023438 -21.476562 30.703125 -19.96875 C 29.378906 -18.457031 27.578125 -17.445312 25.296875 -16.9375 L 25.296875 -16.828125 C 26.828125 -16.554688 28.035156 -15.988281 28.921875 -15.125 C 29.804688 -14.257812 30.476562 -13.226562 30.9375 -12.03125 C 31.394531 -10.84375 31.707031 -9.601562 31.875 -8.3125 C 32.039062 -7.019531 32.15625 -5.796875 32.21875 -4.640625 C 32.289062 -3.484375 32.382812 -2.53125 32.5 -1.78125 C 32.625 -1.03125 32.859375 -0.609375 33.203125 -0.515625 L 33.203125 0 L 23.65625 0 C 23.351562 -0.269531 23.164062 -0.753906 23.09375 -1.453125 C 23.03125 -2.148438 22.988281 -2.984375 22.96875 -3.953125 C 22.957031 -4.921875 22.898438 -5.914062 22.796875 -6.9375 C 22.691406 -7.957031 22.460938 -8.898438 22.109375 -9.765625 C 21.753906 -10.628906 21.203125 -11.332031 20.453125 -11.875 C 19.703125 -12.425781 18.679688 -12.703125 17.390625 -12.703125 L 11.671875 -12.703125 L 11.671875 0 Z M 11.671875 -20.203125 L 17.90625 -20.203125 C 19.738281 -20.203125 21.128906 -20.546875 22.078125 -21.234375 C 23.035156 -21.929688 23.515625 -23.046875 23.515625 -24.578125 C 23.515625 -26.109375 23.035156 -27.222656 22.078125 -27.921875 C 21.128906 -28.617188 19.738281 -28.96875 17.90625 -28.96875 L 11.671875 -28.96875 Z M 11.671875 -20.203125 "/></g></g></g><g fill="#000080" fill-opacity="1"><g transform="translate(249.206433, 206.249986)"><g><path d="M -0.046875 0 L 13.15625 -36.46875 L 22.34375 -36.46875 L 35.5 0 L 26.3125 0 L 23.96875 -7.59375 L 11.46875 -7.59375 L 9.125 0 Z M 13.5625 -14.59375 L 21.9375 -14.59375 L 17.796875 -28.046875 L 17.703125 -28.046875 Z M 13.5625 -14.59375 "/></g></g></g></svg>