<svg width="388" height="213" viewBox="0 0 388 213" fill="none" xmlns="http://www.w3.org/2000/svg">
<path d="M37.641 84.4754C20.8067 73.3034 -0.232422 79.1524 -0.232422 79.1524V227.658H386.963L387.543 150.841C378.317 160.37 367.02 171.034 356.467 172.301C338.018 174.515 326.94 165.933 310.859 149.788C285.938 124.766 293.312 58.5032 265.264 48.1007C247.606 41.5517 237.895 69.7071 220.057 64.9339C199.081 59.3212 195.665 12.1445 174.453 12.731C143.745 13.58 151.418 90.8983 128 126.038C112.197 149.75 105.2 127.822 84.5 126.038C57.9182 123.747 62.5577 101.011 37.641 84.4754Z" fill="url(#paint0_linear_250_150)"/>
<path d="M-9.52148 81.0119C-9.52148 81.0119 19.6447 73.3034 36.479 84.4755C61.3957 101.011 59.4182 123.21 86 125.5C106.7 127.284 111.884 149.75 127.687 126.038C151.105 90.8983 142.583 13.58 173.291 12.731C194.503 12.1445 197.919 59.3212 218.895 64.9339C236.733 69.7071 246.444 41.5517 264.102 48.1007C292.15 58.5033 284.775 124.766 309.697 149.788C325.778 165.933 336.856 174.515 355.305 172.301C365.858 171.034 378.316 160.383 387.542 150.854" stroke="#16C9B5" stroke-width="2" stroke-linejoin="round"/>
<path d="M-9.52148 81.0119C-9.52148 81.0119 19.6447 73.3034 36.479 84.4755C61.3957 101.011 60.9182 123.747 87.5 126.038C108.2 127.822 111.884 149.75 127.687 126.038C151.105 90.8983 142.583 13.58 173.291 12.731C194.503 12.1445 197.919 59.3212 218.895 64.9339C236.733 69.7071 246.444 41.5517 264.102 48.1007C292.15 58.5033 284.775 124.766 309.697 149.788C325.778 165.933 336.856 174.515 355.305 172.301C365.858 171.034 378.316 160.383 387.542 150.854" stroke="#16C9B5" stroke-width="2" stroke-linejoin="round"/>
<defs>
<linearGradient id="paint0_linear_250_150" x1="190.173" y1="12.7256" x2="190.173" y2="302.147" gradientUnits="userSpaceOnUse">
<stop stop-color="#16C9B5" stop-opacity="0.8"/>
<stop offset="0.58" stop-color="white" stop-opacity="0"/>
</linearGradient>
</defs>
</svg>
