<svg width="13" height="12" viewBox="0 0 13 12" fill="none" xmlns="http://www.w3.org/2000/svg">
<path d="M10.1058 6.62354H0.625C0.447639 6.62354 0.299167 6.56368 0.179583 6.44396C0.059861 6.32437 0 6.1759 0 5.99854C0 5.82118 0.059861 5.67271 0.179583 5.55312C0.299167 5.4334 0.447639 5.37354 0.625 5.37354H10.1058L5.79813 1.06583C5.67424 0.941944 5.61306 0.796943 5.61458 0.630832C5.61625 0.464721 5.68167 0.317014 5.81083 0.187708C5.94014 0.0670137 6.08653 0.00451367 6.25 0.000208117C6.41347 -0.00409744 6.55986 0.0584026 6.68917 0.187708L11.9727 5.47125C12.0508 5.5493 12.1058 5.6316 12.1377 5.71812C12.1698 5.80465 12.1858 5.89812 12.1858 5.99854C12.1858 6.09896 12.1698 6.19243 12.1377 6.27896C12.1058 6.36549 12.0508 6.44778 11.9727 6.52583L6.68917 11.8094C6.57375 11.9248 6.43083 11.9838 6.26042 11.9865C6.09 11.9891 5.94014 11.9301 5.81083 11.8094C5.68167 11.6801 5.61708 11.5316 5.61708 11.364C5.61708 11.1962 5.68167 11.0476 5.81083 10.9183L10.1058 6.62354Z" fill="#E3E3E3"/>
</svg>
