<svg width="40" height="40" viewBox="0 0 40 40" fill="none" xmlns="http://www.w3.org/2000/svg">
<rect width="40" height="40" rx="20" fill="url(#paint0_linear_194_272)"/>
<path d="M20 26V13" stroke="white" stroke-width="2" stroke-linecap="round" stroke-linejoin="round"/>
<path d="M23 21C22.1348 20.7471 21.3748 20.2206 20.834 19.4995C20.2932 18.7784 20.0005 17.9014 20 17C19.9995 17.9014 19.7068 18.7784 19.166 19.4995C18.6252 20.2206 17.8652 20.7471 17 21" stroke="white" stroke-width="2" stroke-linecap="round" stroke-linejoin="round"/>
<path d="M25.598 14.5001C25.8281 14.1016 25.9635 13.6555 25.9936 13.1963C26.0237 12.7371 25.9478 12.2772 25.7717 11.852C25.5956 11.4269 25.324 11.0479 24.9781 10.7445C24.6321 10.4411 24.221 10.2213 23.7765 10.1022C23.332 9.98312 22.866 9.96787 22.4147 10.0576C21.9634 10.1474 21.5387 10.3398 21.1737 10.62C20.8086 10.9001 20.5129 11.2605 20.3093 11.6732C20.1058 12.0859 20 12.54 20 13.0001C20 12.54 19.8942 12.0859 19.6907 11.6732C19.4871 11.2605 19.1914 10.9001 18.8263 10.62C18.4613 10.3398 18.0366 10.1474 17.5853 10.0576C17.134 9.96787 16.668 9.98312 16.2235 10.1022C15.779 10.2213 15.3679 10.4411 15.0219 10.7445C14.676 11.0479 14.4044 11.4269 14.2283 11.852C14.0522 12.2772 13.9763 12.7371 14.0064 13.1963C14.0365 13.6555 14.1719 14.1016 14.402 14.5001" stroke="white" stroke-width="2" stroke-linecap="round" stroke-linejoin="round"/>
<path d="M25.997 13.125C26.5848 13.2761 27.1305 13.559 27.5928 13.9523C28.0551 14.3456 28.4218 14.8389 28.6652 15.3948C28.9086 15.9508 29.0223 16.5549 28.9976 17.1613C28.973 17.7677 28.8107 18.3606 28.523 18.895" stroke="white" stroke-width="2" stroke-linecap="round" stroke-linejoin="round"/>
<path d="M26 26.0001C26.8805 26.0001 27.7364 25.7095 28.4349 25.1735C29.1335 24.6375 29.6356 23.8859 29.8635 23.0354C30.0914 22.1849 30.0323 21.283 29.6954 20.4695C29.3585 19.656 28.7625 18.9764 28 18.5361" stroke="white" stroke-width="2" stroke-linecap="round" stroke-linejoin="round"/>
<path d="M27.967 25.4829C28.0371 26.0251 27.9953 26.576 27.8441 27.1014C27.693 27.6269 27.4357 28.1157 27.0882 28.5379C26.7407 28.96 26.3104 29.3064 25.8238 29.5557C25.3372 29.805 24.8046 29.9518 24.259 29.9872C23.7134 30.0227 23.1664 29.9458 22.6516 29.7615C22.1369 29.5772 21.6654 29.2893 21.2662 28.9157C20.8671 28.542 20.5488 28.0905 20.331 27.589C20.1132 27.0875 20.0006 26.5467 20 25.9999C19.9994 26.5467 19.8867 27.0875 19.669 27.589C19.4512 28.0905 19.1329 28.542 18.7338 28.9157C18.3346 29.2893 17.8631 29.5772 17.3484 29.7615C16.8336 29.9458 16.2866 30.0227 15.741 29.9872C15.1954 29.9518 14.6628 29.805 14.1762 29.5557C13.6896 29.3064 13.2593 28.96 12.9118 28.5379C12.5643 28.1157 12.307 27.6269 12.1559 27.1014C12.0047 26.576 11.9629 26.0251 12.033 25.4829" stroke="white" stroke-width="2" stroke-linecap="round" stroke-linejoin="round"/>
<path d="M14 26.0001C13.1195 26.0001 12.2636 25.7095 11.5651 25.1735C10.8665 24.6375 10.3644 23.8859 10.1365 23.0354C9.90859 22.1849 9.96769 21.283 10.3046 20.4695C10.6416 19.656 11.2375 18.9764 12 18.5361" stroke="white" stroke-width="2" stroke-linecap="round" stroke-linejoin="round"/>
<path d="M14.003 13.125C13.4152 13.2761 12.8695 13.559 12.4072 13.9523C11.945 14.3456 11.5782 14.8389 11.3348 15.3948C11.0914 15.9508 10.9778 16.5549 11.0024 17.1613C11.027 17.7677 11.1893 18.3606 11.477 18.895" stroke="white" stroke-width="2" stroke-linecap="round" stroke-linejoin="round"/>
<defs>
<linearGradient id="paint0_linear_194_272" x1="13.3528" y1="-13.3528" x2="53.3528" y2="26.6472" gradientUnits="userSpaceOnUse">
<stop stop-color="#000080"/>
<stop offset="0.5" stop-color="#00BFA6"/>
<stop offset="1" stop-color="#F0E8D0"/>
</linearGradient>
</defs>
</svg>
